<svg xmlns="http://www.w3.org/2000/svg" viewBox="0 0 64 64" aria-labelledby="title"
aria-describedby="desc" role="img" xmlns:xlink="http://www.w3.org/1999/xlink">
  <title>Pen</title>
  <desc>A color styled icon from Orion Icon Library.</desc>
  <path data-name="layer2"
  d="M61.1 6.9l-36 40.4a6 6 0 1 1-9-8l.5-.5L57 2.8a2.8 2.8 0 0 1 4 4z" fill="#7b8baf"></path>
  <path data-name="layer1" d="M17.2 51.1a6.5 6.5 0 0 0-4.3-4.3 6 6 0 0 1-5.6.9l-.9.7-.5.7a6.4 6.4 0 0 0-1 1.9c-1.8 4.2-2.8 10.9-2.8 10.9s6.8-.9 11-2.7a6.5 6.5 0 0 0 1.7-1l.7-.6.7-.9a6 6 0 0 1 1-5.6z"
  fill="#cbd8e6"></path>
  <path data-name="opacity" d="M25.1 47.4L61.1 7a2.9 2.9 0 0 0 .2-3.7L16.5 48a6.1 6.1 0 0 0 8.6-.6z"
  fill="#000028" opacity=".25"></path>
  <path data-name="stroke" fill="none" stroke="#2e4369" stroke-linecap="round"
  stroke-linejoin="miter" stroke-width="2" d="M9.7 54.3l-7.6 7.6m59-55l-36 40.4a6 6 0 1 1-9-8l.5-.5L57 2.8a2.8 2.8 0 0 1 4 4zM17.2 51.1a6.5 6.5 0 0 0-4.3-4.3 6 6 0 0 1-5.6.9l-.9.7-.5.7a6.4 6.4 0 0 0-1 1.9c-1.8 4.2-2.8 10.9-2.8 10.9s6.8-.9 11-2.7a6.5 6.5 0 0 0 1.7-1l.7-.6.7-.9a6 6 0 0 1 1-5.6z"></path>
</svg>