<svg xmlns="http://www.w3.org/2000/svg" viewBox="0 0 64 64" aria-labelledby="title"
aria-describedby="desc" role="img" xmlns:xlink="http://www.w3.org/1999/xlink">
  <title>Configuration</title>
  <desc>A color styled icon from Orion Icon Library.</desc>
  <path data-name="layer3"
  fill="#8c9ab9" d="M27.96 32.186L12.285 47.861l-5.245.983-4.429 9.995 2 2 10.243-4.181 1.029-5.291 15.629-15.629-3.552-3.552z"></path>
  <path data-name="layer2" d="M49.027 4.078L35.451 17.655a7.474 7.474 0 0 0-2.1 4.152L26.8 26.355a2.7 2.7 0 0 0-.438 4.229l6.757 6.757a2.7 2.7 0 0 0 4.229-.438l4.493-6.477a7.477 7.477 0 0 0 4.271-2.116l13.571-13.576A7.535 7.535 0 0 0 49.027 4.078z"
  fill="#ff7027"></path>
  <path data-name="layer1" d="M61.976 49.508A11.734 11.734 0 0 0 48.71 38.625a3.946 3.946 0 0 1-3.337-1.078l-5-5-3.03 4.353a2.7 2.7 0 0 1-4.229.438l-1.6-1.6-1.86 1.862 7.86 7.86a3.98 3.98 0 0 1 1.1 3.339 11.534 11.534 0 0 0-.094 1.466 11.658 11.658 0 0 0 13.509 11.588l-5-7.92a1.3 1.3 0 0 1 .1-1.532l2.4-2.875a1.3 1.3 0 0 1 .644-.419l3.2-.913a1.3 1.3 0 0 1 1.49.606l4.833 8.439a11.671 11.671 0 0 0 2.28-7.731z"
  fill="#7b8baf"></path>
  <path data-name="opacity" d="M38.343 44.9l4.493-6.477a7.57 7.57 0 0 0 2.56-.861c-.007-.007-.016-.011-.024-.018l-5-5-3.029 4.356a2.7 2.7 0 0 1-4.229.438l-1.6-1.6-1.86 1.862 7.86 7.86c.055.055.09.122.141.18a2.572 2.572 0 0 0 .688-.74z"
  fill="#000064" opacity=".2"></path>
  <path data-name="layer1" d="M26.357 30.583a2.7 2.7 0 0 1 .438-4.229l4.361-3.025-4.683-4.683a3.964 3.964 0 0 1-1.1-3.349A11.737 11.737 0 0 0 13.739 2c-.338 0-.67.023-1 .05l4.406 6.973a1.3 1.3 0 0 1-.1 1.532l-2.4 2.875a1.3 1.3 0 0 1-.645.42l-3.2.913a1.3 1.3 0 0 1-1.49-.606L4.756 6.189a11.73 11.73 0 0 0 6.4 19 11.593 11.593 0 0 0 4.028.2 4.011 4.011 0 0 1 3.363 1.1l7.553 7.555 1.858-1.858z"
  fill="#7b8baf"></path>
  <path data-name="opacity" fill="#000064" opacity=".2" d="M24.573 35.573l3.387-3.387 3.552 3.552-3.387 3.387zM56 13L41 28c-1 1-3 2-4 4s-4.976 4.476-5.488 3.738l1.6 1.6a2.7 2.7 0 0 0 4.229-.438l4.493-6.477a7.477 7.477 0 0 0 4.271-2.116l13.578-13.573a7.553 7.553 0 0 0 .151-10.488C60.681 6.314 59.677 9.323 56 13z"></path>
  <path data-name="stroke" fill="none" stroke="#2e4369" stroke-linecap="round"
  stroke-miterlimit="10" stroke-width="2" d="M27.96 32.186L12.285 47.861l-5.245.983-4.429 9.995 2 2 10.243-4.181 1.029-5.291 15.629-15.629"
  stroke-linejoin="miter"></path>
  <path data-name="stroke" d="M49.027 4.078L35.451 17.655a7.474 7.474 0 0 0-2.1 4.152L26.8 26.355a2.7 2.7 0 0 0-.438 4.229l6.757 6.757a2.7 2.7 0 0 0 4.229-.438l4.493-6.477a7.477 7.477 0 0 0 4.271-2.116l13.571-13.576A7.535 7.535 0 0 0 49.027 4.078z"
  fill="none" stroke="#2e4369" stroke-linecap="round" stroke-miterlimit="10"
  stroke-width="2" stroke-linejoin="miter"></path>
  <path data-name="stroke" d="M31.156 23.33l-4.683-4.683a3.964 3.964 0 0 1-1.1-3.349A11.737 11.737 0 0 0 13.739 2c-.338 0-.67.023-1 .051l4.406 6.973a1.3 1.3 0 0 1-.1 1.532l-2.4 2.875a1.3 1.3 0 0 1-.645.419l-3.2.913a1.3 1.3 0 0 1-1.49-.606L4.756 6.189a11.73 11.73 0 0 0 6.4 19 11.593 11.593 0 0 0 4.028.2 4.011 4.011 0 0 1 3.363 1.1l7.553 7.555m3.554 3.556l7.86 7.86a3.98 3.98 0 0 1 1.1 3.339 11.542 11.542 0 0 0-.094 1.466 11.658 11.658 0 0 0 13.509 11.588l-5-7.92a1.3 1.3 0 0 1 .1-1.532l2.4-2.875a1.3 1.3 0 0 1 .644-.419l3.2-.913a1.3 1.3 0 0 1 1.49.606l4.833 8.439a11.671 11.671 0 0 0 2.291-7.731A11.734 11.734 0 0 0 48.71 38.625a3.945 3.945 0 0 1-3.337-1.079l-5-5"
  fill="none" stroke="#2e4369" stroke-linecap="round" stroke-miterlimit="10"
  stroke-width="2" stroke-linejoin="miter"></path>
</svg>